<mxfile host="app.diagrams.net" modified="2024-01-23T00:08:18.292Z" agent="Mozilla/5.0 (Windows NT 10.0; Win64; x64) AppleWebKit/537.36 (KHTML, like Gecko) Chrome/120.0.0.0 Safari/537.36" version="22.1.21" etag="FHQ5Y9ZaXXH1oyapYJO0" type="github">
  <diagram name="第 1 页" id="XqHj2Ax7sGL_9b3X9gR7">
    <mxGraphModel>
      <root>
        <mxCell id="0" />
        <mxCell id="1" parent="0" />
      </root>
    </mxGraphModel>
  </diagram>
</mxfile>
